<?xml version="1.0" standalone="no"?>
<!DOCTYPE svg PUBLIC "-//W3C//DTD SVG 20010904//EN"
 "http://www.w3.org/TR/2001/REC-SVG-20010904/DTD/svg10.dtd">
<svg version="1.0" xmlns="http://www.w3.org/2000/svg"
 width="1080.000000pt" height="1080.000000pt" viewBox="0 0 1080.000000 1080.000000"
 preserveAspectRatio="xMidYMid meet">

<g transform="translate(0.000000,1080.000000) scale(0.100000,-0.100000)"
fill="#000000" stroke="none">
<path d="M2160 8990 c0 -6 -33 -10 -79 -10 -44 0 -82 -4 -85 -9 -3 -5 -23 -11
-43 -15 -100 -15 -119 -19 -134 -33 -9 -7 -33 -16 -53 -20 -19 -3 -41 -12 -47
-19 -6 -8 -17 -14 -24 -14 -14 0 -90 -38 -125 -63 -14 -9 -50 -34 -80 -54 -30
-20 -62 -45 -71 -55 -9 -10 -21 -18 -28 -18 -13 0 -171 -151 -171 -164 0 -5
-16 -28 -35 -52 -19 -23 -35 -47 -35 -53 0 -6 -5 -11 -11 -11 -5 0 -17 -15
-25 -32 -17 -38 -34 -67 -51 -86 -7 -7 -13 -24 -13 -37 0 -13 -6 -30 -12 -37
-22 -23 -58 -99 -58 -123 0 -12 -6 -28 -14 -34 -9 -8 -17 -43 -21 -96 -5 -52
-13 -89 -21 -96 -21 -17 -21 -4901 0 -4918 8 -7 16 -44 21 -96 4 -53 12 -88
21 -96 8 -6 14 -23 14 -38 0 -14 9 -37 20 -51 11 -14 20 -32 20 -41 0 -9 7
-19 15 -23 8 -3 15 -18 15 -32 0 -15 6 -35 14 -43 8 -9 26 -40 41 -68 14 -29
30 -53 36 -53 5 0 9 -6 9 -14 0 -7 16 -31 35 -52 19 -21 35 -43 35 -49 0 -11
128 -138 175 -172 16 -12 57 -40 90 -62 33 -22 71 -48 85 -58 34 -24 111 -63
125 -63 7 0 18 -6 24 -14 6 -8 32 -17 56 -21 25 -3 51 -13 59 -21 8 -8 26 -14
40 -14 14 0 27 -4 30 -9 7 -11 68 -21 171 -27 44 -3 84 -10 90 -15 12 -12
6458 -12 6471 0 5 5 45 12 89 15 103 6 164 16 171 27 3 5 16 9 30 9 14 0 32 6
40 14 8 8 34 18 59 21 24 4 50 13 56 21 6 8 17 14 24 14 15 0 101 43 123 62 9
8 35 23 57 33 22 10 57 35 78 56 21 22 43 39 48 39 13 0 179 164 179 176 0 5
13 23 28 39 15 17 31 37 36 45 4 8 18 33 32 55 13 22 27 48 30 58 4 9 10 17
14 17 4 0 11 16 14 35 4 19 12 40 19 47 22 24 57 100 57 124 0 14 6 27 14 30
10 4 16 32 21 94 4 57 12 93 21 101 21 17 21 4901 0 4918 -8 7 -16 44 -21 96
-4 53 -12 88 -21 96 -8 6 -14 22 -14 34 0 24 -35 100 -57 122 -6 7 -15 27 -18
45 -4 18 -10 35 -14 38 -9 8 -29 41 -45 78 -8 17 -20 32 -25 32 -6 0 -11 6
-11 13 0 6 -16 29 -35 51 -19 21 -35 43 -35 50 0 14 -156 166 -170 166 -6 0
-29 18 -51 40 -23 22 -58 48 -78 57 -20 9 -44 23 -53 31 -22 19 -108 62 -123
62 -7 0 -18 6 -24 14 -6 7 -30 16 -53 20 -23 4 -53 13 -67 20 -39 20 -94 36
-124 36 -14 0 -29 5 -32 10 -3 6 -42 10 -85 10 -43 0 -82 5 -85 10 -9 14
-6475 14 -6475 0z m2645 -905 c14 -14 25 -36 25 -48 0 -12 9 -42 20 -66 11
-24 20 -52 20 -62 0 -10 4 -19 8 -19 5 0 15 -23 22 -51 8 -27 18 -52 22 -55 4
-3 8 -16 8 -29 0 -14 9 -39 20 -57 11 -18 20 -43 20 -56 0 -13 7 -30 15 -38 8
-9 15 -24 15 -34 0 -11 9 -35 20 -55 11 -20 20 -47 20 -60 0 -14 5 -25 10 -25
6 0 10 -12 10 -27 0 -16 9 -39 20 -53 11 -14 20 -37 20 -51 0 -15 6 -32 14
-38 8 -6 17 -31 20 -55 4 -24 13 -52 21 -62 8 -11 15 -27 15 -36 0 -10 4 -18
8 -18 9 0 32 -80 32 -110 0 -11 3 -20 8 -20 8 0 36 -59 52 -112 6 -21 15 -38
20 -38 4 0 15 -15 24 -34 16 -33 116 -138 154 -160 11 -6 38 -23 60 -38 23
-16 48 -28 57 -28 8 0 15 -4 15 -8 0 -5 19 -14 43 -21 23 -7 50 -17 59 -22 10
-5 41 -9 70 -9 29 0 66 -7 82 -15 25 -13 224 -15 1592 -15 l1564 0 0 -1684 c0
-1113 -3 -1687 -10 -1691 -6 -3 -10 -21 -10 -39 0 -34 -20 -86 -32 -86 -5 0
-8 -7 -8 -15 0 -9 -8 -28 -17 -43 -22 -36 -105 -122 -117 -122 -5 0 -22 -12
-37 -26 -19 -18 -42 -28 -76 -32 -26 -2 -57 -11 -68 -18 -29 -21 -6441 -21
-6470 0 -11 7 -42 16 -68 18 -34 4 -57 14 -76 32 -15 14 -32 26 -37 26 -12 0
-95 86 -117 122 -9 15 -17 34 -17 43 0 8 -3 15 -7 15 -13 0 -33 53 -33 87 0
18 -4 33 -10 33 -7 0 -10 778 -10 2314 0 1533 3 2317 10 2321 6 3 10 21 10 39
0 34 20 86 33 86 4 0 7 7 7 15 0 9 8 28 17 43 22 36 105 122 117 122 5 0 22
12 37 26 20 20 42 28 78 32 28 2 56 11 62 18 10 12 221 14 1315 14 l1303 0 26
-25z"/>
<path d="M3679 7062 c-14 -8 -36 -30 -47 -47 l-22 -31 0 -1949 0 -1949 23 -33
c12 -18 33 -37 47 -43 17 -7 191 -10 519 -8 l493 3 34 37 34 38 0 1952 0 1952
-22 32 c-46 66 -26 64 -555 63 -417 -1 -481 -3 -504 -17z"/>
<path d="M5168 5903 c-15 -2 -43 -22 -62 -44 l-36 -39 0 -1368 c1 -1277 2
-1368 18 -1387 9 -11 30 -30 46 -43 l29 -22 485 0 486 0 32 22 c68 47 64 -38
64 1436 0 1316 0 1333 -20 1372 -40 78 -16 75 -545 76 -258 1 -482 0 -497 -3z"/>
<path d="M2240 4728 c-19 -5 -43 -17 -53 -26 -47 -42 -47 -38 -47 -830 0 -826
-2 -805 64 -850 l32 -22 485 0 c532 0 508 -3 558 62 21 26 21 32 21 804 l0
777 -26 35 c-48 62 -46 62 -546 61 -267 0 -467 -5 -488 -11z"/>
</g>
</svg>
